# xmcd
#
# Track frame offsets:
#	150
#	14076
#	31395
#	49080
#	56537
#	73161
#	89404
#	109087
#	129757
#	153083
#	170144
#	184086
#	195862
#	208307
#
# Disc length: 2902 seconds
#
# Revision: 0
# Processed by: cddbd v1.5.2PL0 Copyright (c) Steve Scherf et al.
# Submitted via: dBpowerAMP V4.0
#
DISCID=c10b540e
DTITLE=THANASHS MWRAITHS - "Feggaria Mou Palia,Kainouria Mou Poulia"
DYEAR=2002
DGENRE=Entechno
TTITLE0="Intro-Twra Nyfoula Mou Chrysi"
TTITLE1="Nanourisma"
TTITLE2="Gyrna Fterwti Tou Mylou"
TTITLE3="Kouvari-Kouvaraki"
TTITLE4="Htan Kamari Tis Augis-Outro"
TTITLE5="O Efialtis Tis Persefonis"
TTITLE6="Efyge To Treno"
TTITLE7="Kane Ton Pono Sou Chara"
TTITLE8="H Mikri Rallou"
TTITLE9="Mia Panagia"
TTITLE10="To Waltz"(Instr.)
TTITLE11="Ta Loustrakia"
TTITLE12="T'asteri Tou Voria"
TTITLE13="Finale(T'Asteri Tou Voria-Instr.)
EXTD=
EXTT0=
EXTT1=
EXTT2=
EXTT3=
EXTT4=
EXTT5=
EXTT6=
EXTT7=
EXTT8=
EXTT9=
EXTT10=
EXTT11=
EXTT12=
EXTT13=
PLAYORDER=
